<svg width="27" height="17" viewBox="0 0 27 17" fill="none" xmlns="http://www.w3.org/2000/svg">
<path d="M10.993 7.62843C10.993 7.62843 13.4535 7.44577 13.4535 4.56052C13.4535 1.67506 11.4405 0.266907 8.89066 0.266907H0.5V16.3912H8.89066C8.89066 16.3912 14.0129 16.553 14.0129 11.6321C14.0129 11.6321 14.2362 7.62843 10.993 7.62843ZM8.89066 3.13283C8.89066 3.13283 10.0312 3.13282 10.0312 4.81049C10.0312 6.48795 9.36044 6.73116 8.59963 6.73116H4.19703V3.13283H8.89066ZM8.65356 13.5254H4.19703V9.21639H8.89066C8.89066 9.21639 10.5906 9.19411 10.5906 11.4308C10.5906 13.3168 9.32091 13.5112 8.65356 13.5254ZM20.8442 4.36941C14.6432 4.36941 14.6487 10.5649 14.6487 10.5649C14.6487 10.5649 14.2233 16.7285 20.8442 16.7285C20.8442 16.7285 26.3616 17.0437 26.3616 12.4408H23.5241C23.5241 12.4408 23.6187 14.1742 20.9388 14.1742C20.9388 14.1742 18.1009 14.3644 18.1009 11.3689H26.4562C26.4562 11.3689 27.3704 4.36941 20.8442 4.36941ZM18.0697 9.21639C18.0697 9.21639 18.4162 6.73111 20.9072 6.73111C23.3978 6.73111 23.3666 9.21639 23.3666 9.21639H18.0697ZM24.0276 3.20243H17.375V1.21684H24.0276V3.20243Z" fill="#191B1D"/>
</svg>
