<svg width="110" height="110" fill="none" xmlns="http://www.w3.org/2000/svg">
  <path d="M45.3 59.3h5l.1 3.2c0 15-3.8 23-14.4 22.4-10.9-.6-16.2-9.2-16-30 0-9.6 1-17 4-22.5C27 27 31.8 25 37.4 25c4.2 0 7.3 1.6 9.8 4.5 2.6 2.9 4 7.1 2.5 11.7-1 2.9-1.3 4.1-3.1 5.7-1 .8-2.7 1.1-3.6 1a6 6 0 01-5.3-6c-.1-1.9 0-2.7 1-4.2 1-1.6 2.5-1.9 3.9-1.9a4 4 0 012.9 1.4s.4.4.8 1.3c.1.2.3.6.5.7 0 0 .2.2.2-.9l-.2-1.7c-1-4.4-4.2-6.4-7.8-6.3-2.8.1-6.1 2-7.3 5A65 65 0 0030 53c0 9 0 15.8.9 19.1.8 3.3 2.4 7.2 7 7.3 4.3 0 7.3-3.3 7.3-16.9v-3.2z" fill="currentColor"/>
  <path d="M58.6 31.2c-2.8 1.1-4.1 4.4-4.3 4.8l-.3 1.6c0 .9.3 1.2.3 1.3.6-1.5 1.8-3 3.8-3.3 1.5-.3 2.4 0 3.3.7.5.3 1 .7 1.3 1.2a5 5 0 01.7 3.1c0 2.1-.3 3.5-1.6 5s-2.6 2.1-4.3 2c-2 0-3.2-.7-4.8-2.3a9.2 9.2 0 01-2.3-6.4c-.2-4.5 1.4-7.8 4.5-10.6 3.2-2.8 7-3.2 11.8-3.2 5.5 0 9.2 1.5 12.2 5.7.9 1.3 1.3 2.5 1.9 4.2.4 1.3.5 3.5.5 7v29.4c0 3.1-.7 7.7 2 7.7 1 0 2.8 0 2.7-4.5v-9.2h3.7v5.7C90 79.6 89 85 80.4 85c-4.2 0-7.7-1.9-9-7.5-3 5.6-6.4 7.5-10.8 7.5-3.4 0-7.4-1.8-9.6-4.5s-2-6.6-2-10.7c.2-7 3.4-11.1 8.8-14.5l6.3-4c4.7-2.7 7.4-7 7.4-11.5 0-2.6-.7-4.8-2-6.4-1.4-1.6-5-4.2-10.6-2.3l-.3.1zm12.6 20.2c-3.7 4-8 8-9.5 9.8a17.3 17.3 0 00-3.6 7.3c-1.2 8.5 2.4 10.6 5 10.6 6.8 0 8.4-9.2 8.3-17.5l-.2-10.2z" fill="currentColor"/>
</svg>
