<svg width="60" height="60" fill="none" xmlns="http://www.w3.org/2000/svg">
    <path
        d="M32.265 24.332c1.699.776 3.767-.037 4.542-1.884a3.508 3.508 0 0 0-1.81-4.616c-1.698-.775-3.766.037-4.542 1.884-.701 1.772.074 3.84 1.81 4.616zM11.252 41.91c-.444-.22-.998 0-1.182.518-.185.517 0 1.034.517 1.218.443.222.997 0 1.219-.517.11-.443-.111-.997-.554-1.218zM24.251 8.821c.443.222.997 0 1.219-.517.184-.517 0-1.034-.517-1.218-.517-.222-.997 0-1.219.517-.185.48.037 1.034.517 1.218zM33.853 51.919c-.443-.222-.997 0-1.219.517-.184.517 0 1.034.517 1.218.443.222.997 0 1.219-.517.11-.443-.074-1.034-.517-1.218zM49.437 17.906c-.443-.221-.997 0-1.218.517-.185.517 0 1.034.517 1.219.443.221.997 0 1.218-.517.148-.406-.073-.96-.517-1.219z"
        fill="currentColor"/>
    <path
        d="M46.926 18.534c-.812-.406-1.773.037-2.068.85-.148.442-.185.812-.037 1.181-.295-.554-.812-1.145-1.44-1.366-1.477-.628-3.25.037-3.84 1.55-.222.518-.296 1.183-.185 1.7-1.7 1.994-3.694 3.25-5.466 3.47a5.177 5.177 0 0 1-1.071 0 3.275 3.275 0 0 1-1.071-.294c-1.699-.776-2.733-2.807-2.955-5.466-.037-.517-.11-1.182-.037-1.699 0-.259.037-.517.037-.739.518-.295.85-.775 1.145-1.329.628-1.514-.037-3.287-1.514-3.915a2.662 2.662 0 0 0-1.994-.11c.406-.148.628-.444.812-.85.407-.812-.037-1.81-.849-2.105-.813-.406-1.773.037-2.068.85-.406.812.037 1.81.85 2.105.332.147.7.184 1.033.11a2.911 2.911 0 0 0-1.588 1.588c-.517 1.293-.147 2.77.924 3.583-.037.221-.037.443-.037.627-.037.739-.037 1.478.037 2.142.221 2.733 1.181 5.097 2.77 6.722-1.7.11-3.472.923-5.17 2.29-1.995 1.587-3.915 4.062-5.467 7.053-.997.148-1.883.776-2.29 1.773-.332.738-.295 1.588-.036 2.29-.185-.296-.443-.518-.776-.702-.812-.407-1.772.037-2.068.849-.406.813.037 1.81.85 2.105.812.406 1.772-.037 2.068-.85.147-.443.184-.812.037-1.181.295.554.812 1.145 1.44 1.366 1.477.628 3.25-.037 3.84-1.55a3.128 3.128 0 0 0 .148-1.921c1.256-2.733 2.88-4.875 4.617-6.278 1.477-1.219 2.88-1.773 3.877-1.293.517.222.924.739 1.219 1.367.148.332.258.738.406 1.181.517 2.327.111 5.577-1.218 8.938a3.02 3.02 0 0 0-1.256 1.44c-.628 1.514.037 3.287 1.514 3.914.628.296 1.33.333 1.994.111-.406.148-.627.443-.812.85-.406.812.037 1.81.85 2.105.812.406 1.772-.037 2.067-.85.406-.812-.037-1.81-.85-2.105a1.678 1.678 0 0 0-1.033-.11 2.912 2.912 0 0 0 1.588-1.589c.443-.997.258-2.068-.296-2.954 1.367-3.84 1.773-7.718 1.182-10.636a13.096 13.096 0 0 0-.554-1.92c-.295-.628-.628-1.256-1.034-1.773.443 0 .85 0 1.256-.11 2.585-.333 5.244-1.921 7.46-4.432 1.292.221 2.659-.517 3.176-1.773.332-.739.295-1.588.037-2.29.147.296.443.517.775.702.813.406 1.773-.037 2.068-.85.148-.406-.221-1.403-.997-1.772z"
        fill="currentColor"/>
</svg>
